<svg width="42" height="8" viewBox="0 0 42 8" fill="none" xmlns="http://www.w3.org/2000/svg">
<path d="M7.839 0.565V7H6.62025V3.646L6.6885 1.76425H6.669L4.88475 7H3.783L2.0085 1.76425H1.989L2.05725 3.646V7H0.8385V0.565H2.7885L3.94875 4.075L4.35825 5.52775H4.37775L4.797 4.08475L5.9475 0.565H7.839ZM9.64799 7V0.565H14.4742V1.64725H10.9935V3.24625H13.7332V4.27975H10.9935V5.91775H14.6107V7H9.64799Z" fill="#F3508C"/>
<path d="M18.4396 0.565C19.4471 0.565 20.2271 0.8445 20.7796 1.4035C21.3321 1.956 21.6083 2.749 21.6083 3.7825C21.6083 4.8095 21.3321 5.6025 20.7796 6.1615C20.2271 6.7205 19.4471 7 18.4396 7H15.9533V0.565H18.4396ZM18.3713 5.9275C18.9823 5.9275 19.4406 5.7455 19.7461 5.3815C20.0581 5.011 20.2141 4.478 20.2141 3.7825C20.2141 3.087 20.0581 2.55725 19.7461 2.19325C19.4406 1.82275 18.9823 1.6375 18.3713 1.6375H17.2988V5.9275H18.3713ZM24.4421 0.565V7H23.0966V0.565H24.4421ZM31.759 5.2255C31.6355 5.6415 31.4405 5.98925 31.174 6.26875C30.9075 6.54825 30.5923 6.75625 30.2283 6.89275C29.8643 7.02925 29.4645 7.0975 29.029 7.0975C28.392 7.0975 27.8395 6.96425 27.3715 6.69775C26.91 6.43125 26.5525 6.051 26.299 5.557C26.052 5.063 25.9285 4.4715 25.9285 3.7825C25.9285 3.0935 26.052 2.502 26.299 2.008C26.5525 1.514 26.91 1.13375 27.3715 0.86725C27.8395 0.60075 28.3855 0.4675 29.0095 0.4675C29.4515 0.4675 29.8513 0.52925 30.2088 0.65275C30.5663 0.76975 30.8685 0.95175 31.1155 1.19875C31.369 1.44575 31.5543 1.75775 31.6713 2.13475L30.4525 2.6515C30.342 2.2615 30.173 1.98525 29.9455 1.82275C29.718 1.65375 29.4255 1.56925 29.068 1.56925C28.717 1.56925 28.4083 1.65375 28.1418 1.82275C27.8818 1.99175 27.6803 2.242 27.5373 2.5735C27.3943 2.8985 27.3228 3.3015 27.3228 3.7825C27.3228 4.257 27.3878 4.66 27.5178 4.9915C27.6543 5.323 27.8525 5.57325 28.1125 5.74225C28.3725 5.91125 28.691 5.99575 29.068 5.99575C29.419 5.99575 29.7213 5.9015 29.9748 5.713C30.2348 5.5245 30.4168 5.2385 30.5208 4.855L31.759 5.2255ZM38.628 7H37.2337L36.6975 5.43025H34.2307L33.6945 7H32.3197L34.6695 0.565H36.2782L38.628 7ZM34.533 4.43575H36.3952L35.4592 1.62775L34.533 4.43575ZM40.4255 5.50825C40.6855 5.50825 40.8903 5.57975 41.0398 5.72275C41.1958 5.86575 41.2738 6.0575 41.2738 6.298C41.2738 6.545 41.1958 6.74 41.0398 6.883C40.8903 7.0195 40.6855 7.08775 40.4255 7.08775C40.1655 7.08775 39.9575 7.0195 39.8015 6.883C39.652 6.74 39.5773 6.545 39.5773 6.298C39.5773 6.0575 39.652 5.86575 39.8015 5.72275C39.9575 5.57975 40.1655 5.50825 40.4255 5.50825Z" fill="#313038"/>
</svg>
