<svg width="24" height="24" viewBox="0 0 24 24" fill="none" xmlns="http://www.w3.org/2000/svg">
<g id="logo" clip-path="url(#clip0_2043_655)">
<g id="Group">
<path id="Vector" d="M21.5289 8.53188C20.0154 6.09416 17.4826 4.26586 14.4556 3.62741C14.3938 3.91761 14.3629 4.23684 14.3629 4.55607C14.3629 6.00709 15.1042 7.31302 16.2162 8.1256C16.2162 8.1256 16.2162 8.1256 16.2471 8.1256C16.3089 8.15462 16.3706 8.21266 16.4015 8.24168C18.1313 9.48956 19.2741 11.463 19.2741 13.6685C19.2741 17.4412 16.0309 20.4883 12.0154 20.4883C7.99998 20.4883 4.75674 17.4412 4.75674 13.6685C4.75674 11.492 5.83782 9.5476 7.53666 8.29972C7.53666 8.29972 7.53666 8.29972 7.56755 8.29972C7.66021 8.24168 7.75288 8.15462 7.84554 8.09657C8.95751 7.25498 9.66793 5.97807 9.66793 4.52705C9.66793 4.20782 9.63705 3.88859 9.57527 3.59839C6.54824 4.23684 4.01543 6.06514 2.50191 8.50286C1.57527 10.0119 1.01929 11.7822 1.01929 13.6685C1.01929 19.3565 5.93048 23.9998 12.0154 23.9998C18.0695 23.9998 22.9807 19.3856 22.9807 13.6685C22.9807 11.8112 22.4556 10.041 21.5289 8.53188Z" fill="white"/>
<path id="Vector_2" d="M12.0155 16.948C13.8578 16.948 15.3514 15.5448 15.3514 13.8138C15.3514 12.0828 13.8578 10.6796 12.0155 10.6796C10.1731 10.6796 8.67957 12.0828 8.67957 13.8138C8.67957 15.5448 10.1731 16.948 12.0155 16.948Z" fill="white"/>
</g>
<g id="Group_2">
<path id="Vector_3" d="M9.66796 4.55623C9.66796 6.00725 8.95753 7.28416 7.84556 8.12576C7.7529 8.1838 7.66023 8.27086 7.56757 8.3289C7.56757 8.3289 7.56757 8.3289 7.53668 8.3289C6.76448 8.82225 5.83784 9.11245 4.81853 9.11245C3.95367 9.11245 3.18147 8.90931 2.47104 8.53204C1.01931 7.74849 0 6.26844 0 4.55623C0 2.03144 2.16216 0 4.84942 0C7.16603 0 9.11197 1.56711 9.57529 3.62757C9.63707 3.91777 9.66796 4.237 9.66796 4.55623Z" fill="white"/>
<path id="Vector_4" d="M24 4.55623C24 6.26844 22.9807 7.74849 21.4981 8.53205C20.8185 8.88029 20.0154 9.08344 19.1506 9.08344C18.1004 9.08344 17.1428 8.76421 16.3706 8.24184C16.3089 8.21282 16.2471 8.15478 16.2162 8.12576C16.2162 8.12576 16.2162 8.12576 16.1853 8.12576C15.0425 7.28416 14.332 6.00726 14.332 4.55623C14.332 4.237 14.3629 3.91778 14.4247 3.62757C14.888 1.56711 16.834 0 19.1815 0C21.8378 0 24 2.03144 24 4.55623Z" fill="white"/>
</g>
</g>
<defs>
<clipPath id="clip0_2043_655">
<rect width="24" height="24" fill="white"/>
</clipPath>
</defs>
</svg>
